<?xml version="1.0" encoding="UTF-8"?> <svg xmlns="http://www.w3.org/2000/svg" width="407" height="439" viewBox="0 0 407 439" fill="none"> <g clip-path="url(#clip0_3298_4087)"> <path d="M105.199 196.679H63.1944C62.6073 196.679 62.127 196.198 62.127 195.611C62.127 195.024 62.6073 194.544 63.1944 194.544H105.199C105.787 194.544 106.267 195.024 106.267 195.611C106.267 196.198 105.787 196.679 105.199 196.679Z" fill="#FFFFFFFF"></path> <path d="M105.093 332.691H63.1944C62.6073 332.691 62.127 332.211 62.127 331.624C62.127 331.037 62.6073 330.556 63.1944 330.556H105.093C105.68 330.556 106.16 331.037 106.16 331.624C106.16 332.211 105.68 332.691 105.093 332.691Z" fill="#FFFFFFFF"></path> <path d="M324.404 333.519H324.35C323.763 333.519 323.31 332.985 323.336 332.398C323.496 328.608 322.589 324.844 320.774 321.508C320.481 321.001 320.668 320.334 321.201 320.067C321.708 319.773 322.376 319.96 322.642 320.494C324.671 324.15 325.631 328.314 325.471 332.504C325.471 333.092 324.964 333.519 324.404 333.519Z" fill="#FFFFFFFF"></path> <path d="M324.404 347.104C323.817 347.104 323.337 346.624 323.337 346.036V332.425C323.337 331.837 323.817 331.357 324.404 331.357C324.991 331.357 325.472 331.837 325.472 332.425V346.036C325.472 346.624 324.991 347.104 324.404 347.104Z" fill="#FFFFFFFF"></path> <path d="M313.169 347.104C313.169 347.104 313.009 347.104 312.956 347.104C312.369 346.97 312.022 346.41 312.129 345.823L314.37 335.467C314.504 334.88 315.064 334.506 315.651 334.64C316.238 334.773 316.585 335.334 316.479 335.921L314.237 346.276C314.13 346.784 313.676 347.131 313.196 347.131L313.169 347.104Z" fill="#FFFFFFFF"></path> <path d="M121.184 118.797C121.184 118.797 120.997 118.797 120.917 118.771L115.633 117.356C115.073 117.196 114.726 116.609 114.886 116.048C115.046 115.488 115.633 115.141 116.194 115.301L121.477 116.715C122.038 116.876 122.385 117.463 122.225 118.023C122.091 118.504 121.664 118.824 121.184 118.824V118.797Z" fill="#FFFFFFFF"></path> <path d="M121.745 131.822C121.158 131.822 120.678 131.342 120.678 130.754V118.717C120.678 118.13 121.158 117.65 121.745 117.65C122.332 117.65 122.813 118.13 122.813 118.717V130.754C122.813 131.342 122.332 131.822 121.745 131.822Z" fill="#FFFFFFFF"></path> <path d="M121.745 131.822H114.993C114.406 131.822 113.926 131.342 113.926 130.755C113.926 130.167 114.406 129.687 114.993 129.687H121.745C122.332 129.687 122.812 130.167 122.812 130.755C122.812 131.342 122.332 131.822 121.745 131.822Z" fill="#FFFFFFFF"></path> <path d="M114.993 201.91C114.406 201.91 113.926 201.43 113.926 200.843V130.755C113.926 130.167 114.406 129.687 114.993 129.687C115.58 129.687 116.061 130.167 116.061 130.755V200.843C116.061 201.43 115.58 201.91 114.993 201.91Z" fill="#FFFFFFFF"></path> <path d="M117.128 204.232C115.286 204.152 113.872 202.604 113.925 200.789C113.925 200.202 114.432 199.748 115.046 199.775C115.633 199.775 116.087 200.282 116.06 200.896C116.06 201.537 116.541 202.097 117.208 202.124C117.768 202.124 118.382 202.524 118.409 203.111C118.435 203.698 118.062 204.206 117.475 204.232C117.448 204.232 117.208 204.232 117.154 204.232H117.128Z" fill="#FFFFFFFF"></path> <path d="M117.395 204.232C116.835 204.232 116.381 203.805 116.328 203.245C116.274 202.658 116.728 202.15 117.315 202.097L218.484 194.998C219.098 194.917 219.579 195.398 219.632 195.985C219.659 196.572 219.232 197.079 218.645 197.133L117.475 204.232C117.475 204.232 117.422 204.232 117.395 204.232Z" fill="#FFFFFFFF"></path> <path d="M220.993 199.241C220.752 199.241 220.485 199.161 220.299 198.974L217.897 196.892C217.443 196.492 217.417 195.825 217.79 195.398C218.19 194.944 218.858 194.917 219.285 195.291L221.686 197.373C222.14 197.773 222.167 198.44 221.793 198.867C221.58 199.108 221.286 199.241 220.993 199.241Z" fill="#FFFFFFFF"></path> <path d="M220.993 199.241C220.753 199.241 220.486 199.161 220.299 198.974C219.846 198.601 219.819 197.907 220.192 197.48L222.274 195.078C222.648 194.624 223.342 194.597 223.768 194.971C224.222 195.344 224.249 196.038 223.875 196.465L221.794 198.868C221.58 199.108 221.287 199.241 220.993 199.241Z" fill="#FFFFFFFF"></path> <path d="M223.074 196.839C222.514 196.839 222.06 196.412 222.007 195.851C221.98 195.264 222.407 194.757 222.994 194.704L315.331 188.245C315.971 188.165 316.425 188.645 316.478 189.232C316.505 189.82 316.078 190.327 315.491 190.38L223.155 196.839C223.155 196.839 223.101 196.839 223.074 196.839Z" fill="#FFFFFFFF"></path> <path d="M315.41 190.353C314.823 190.353 314.343 189.873 314.343 189.286V187.044C314.343 186.456 314.823 185.976 315.41 185.976C315.997 185.976 316.478 186.456 316.478 187.044V189.286C316.478 189.873 315.997 190.353 315.41 190.353Z" fill="#FFFFFFFF"></path> <path d="M315.411 188.111C314.931 188.111 314.477 187.764 314.37 187.284L312.129 176.928C311.995 176.341 312.369 175.781 312.956 175.647C313.543 175.54 314.103 175.887 314.237 176.475L316.479 186.83C316.612 187.417 316.238 187.978 315.651 188.111C315.571 188.111 315.491 188.111 315.438 188.111H315.411Z" fill="#FFFFFFFF"></path> <path d="M324.404 177.756H313.143C312.556 177.756 312.075 177.275 312.075 176.688C312.075 176.101 312.556 175.62 313.143 175.62H324.404C324.992 175.62 325.472 176.101 325.472 176.688C325.472 177.275 324.992 177.756 324.404 177.756Z" fill="#FFFFFFFF"></path> <path d="M324.404 179.117C323.817 179.117 323.337 178.636 323.337 178.049V176.688C323.337 176.101 323.817 175.62 324.404 175.62C324.991 175.62 325.472 176.101 325.472 176.688V178.049C325.472 178.636 324.991 179.117 324.404 179.117Z" fill="#FFFFFFFF"></path> <path d="M299.638 322.015C299.638 322.015 299.585 322.015 299.558 322.015L268.041 319.64C267.454 319.586 267.027 319.079 267.054 318.492C267.107 317.905 267.588 317.505 268.201 317.505L299.719 319.88C300.306 319.933 300.733 320.441 300.706 321.028C300.653 321.588 300.199 322.015 299.638 322.015Z" fill="#FFFFFFFF"></path> <path d="M299.639 322.015C299.052 322.015 298.571 321.535 298.571 320.948V263.564C298.571 262.977 299.052 262.497 299.639 262.497C300.226 262.497 300.706 262.977 300.706 263.564V320.948C300.706 321.535 300.226 322.015 299.639 322.015Z" fill="#FFFFFFFF"></path> <path d="M299.639 264.632C299.372 264.632 299.105 264.525 298.892 264.338L296.65 262.176C296.223 261.776 296.223 261.082 296.623 260.655C297.05 260.228 297.717 260.228 298.144 260.655L300.386 262.817C300.813 263.217 300.813 263.911 300.413 264.338C300.199 264.552 299.932 264.659 299.639 264.659V264.632Z" fill="#FFFFFFFF"></path> <path d="M297.397 262.47C297.13 262.47 296.863 262.363 296.65 262.176C296.223 261.776 296.223 261.082 296.623 260.655L298.865 258.333C299.292 257.906 299.959 257.906 300.386 258.306C300.813 258.707 300.813 259.401 300.413 259.828L298.171 262.15C297.957 262.363 297.691 262.47 297.397 262.47Z" fill="#FFFFFFFF"></path> <path d="M299.639 260.121C299.052 260.121 298.571 259.641 298.571 259.053V201.67C298.571 201.083 299.052 200.602 299.639 200.602C300.226 200.602 300.706 201.083 300.706 201.67V259.053C300.706 259.641 300.226 260.121 299.639 260.121Z" fill="#FFFFFFFF"></path> <path d="M268.121 204.98C267.561 204.98 267.107 204.552 267.054 203.992C267.027 203.405 267.454 202.898 268.041 202.844L299.558 200.629C300.172 200.576 300.653 201.029 300.706 201.617C300.733 202.204 300.306 202.711 299.719 202.764L268.201 204.98C268.201 204.98 268.148 204.98 268.121 204.98Z" fill="#FFFFFFFF"></path> <path d="M268.122 215.148C267.535 215.148 267.055 214.668 267.055 214.081V203.912C267.055 203.325 267.535 202.844 268.122 202.844C268.709 202.844 269.19 203.325 269.19 203.912V214.081C269.19 214.668 268.709 215.148 268.122 215.148Z" fill="#FFFFFFFF"></path> <path d="M268.122 215.148H262.704C262.117 215.148 261.637 214.668 261.637 214.081C261.637 213.494 262.117 213.013 262.704 213.013H268.122C268.709 213.013 269.189 213.494 269.189 214.081C269.189 214.668 268.709 215.148 268.122 215.148Z" fill="#FFFFFFFF"></path> <path d="M262.704 215.148C262.117 215.148 261.637 214.668 261.637 214.081V204.286C261.637 203.698 262.117 203.218 262.704 203.218C263.291 203.218 263.772 203.698 263.772 204.286V214.081C263.772 214.668 263.291 215.148 262.704 215.148Z" fill="#FFFFFFFF"></path> <path d="M230.734 207.595C230.173 207.595 229.72 207.168 229.666 206.608C229.64 206.02 230.067 205.513 230.654 205.46L262.624 203.218C263.265 203.165 263.719 203.618 263.772 204.205C263.799 204.793 263.372 205.3 262.785 205.353L230.814 207.595C230.814 207.595 230.76 207.595 230.734 207.595Z" fill="#FFFFFFFF"></path> <path d="M230.733 215.148C230.146 215.148 229.666 214.668 229.666 214.081V206.528C229.666 205.94 230.146 205.46 230.733 205.46C231.321 205.46 231.801 205.94 231.801 206.528V214.081C231.801 214.668 231.321 215.148 230.733 215.148Z" fill="#FFFFFFFF"></path> <path d="M230.734 215.148H225.343C224.756 215.148 224.275 214.668 224.275 214.081C224.275 213.494 224.756 213.013 225.343 213.013H230.734C231.321 213.013 231.801 213.494 231.801 214.081C231.801 214.668 231.321 215.148 230.734 215.148Z" fill="#FFFFFFFF"></path> <path d="M225.343 215.148C224.756 215.148 224.275 214.668 224.275 214.081V206.901C224.275 206.314 224.756 205.833 225.343 205.833C225.93 205.833 226.41 206.314 226.41 206.901V214.081C226.41 214.668 225.93 215.148 225.343 215.148Z" fill="#FFFFFFFF"></path> <path d="M216.323 208.583C215.762 208.583 215.308 208.156 215.255 207.595C215.228 207.008 215.655 206.501 216.242 206.447L225.263 205.807C225.903 205.727 226.357 206.207 226.41 206.794C226.437 207.382 226.01 207.889 225.423 207.942L216.403 208.583C216.403 208.583 216.349 208.583 216.323 208.583Z" fill="#FFFFFFFF"></path> <path d="M216.322 215.148C215.735 215.148 215.255 214.668 215.255 214.081V207.542C215.255 206.955 215.735 206.474 216.322 206.474C216.909 206.474 217.39 206.955 217.39 207.542V214.081C217.39 214.668 216.909 215.148 216.322 215.148Z" fill="#FFFFFFFF"></path> <path d="M216.322 215.148H210.932C210.345 215.148 209.864 214.668 209.864 214.081C209.864 213.494 210.345 213.013 210.932 213.013H216.322C216.91 213.013 217.39 213.494 217.39 214.081C217.39 214.668 216.91 215.148 216.322 215.148Z" fill="#FFFFFFFF"></path> <path d="M210.932 215.149C210.345 215.149 209.864 214.668 209.864 214.081V207.916C209.864 207.328 210.345 206.848 210.932 206.848C211.519 206.848 211.999 207.328 211.999 207.916V214.081C211.999 214.668 211.519 215.149 210.932 215.149Z" fill="#FFFFFFFF"></path> <path d="M133.914 214.374C133.353 214.374 132.899 213.947 132.846 213.387C132.793 212.8 133.246 212.293 133.833 212.239L210.852 206.848C211.465 206.768 211.946 207.248 211.999 207.835C212.026 208.423 211.599 208.93 211.012 208.983L133.994 214.374C133.994 214.374 133.94 214.374 133.914 214.374Z" fill="#FFFFFFFF"></path> <path d="M133.914 237.648C133.327 237.648 132.847 237.168 132.847 236.58V213.28C132.847 212.693 133.327 212.212 133.914 212.212C134.501 212.212 134.982 212.693 134.982 213.28V236.58C134.982 237.168 134.501 237.648 133.914 237.648Z" fill="#FFFFFFFF"></path> <path d="M136.156 239.917C135.889 239.917 135.622 239.81 135.409 239.597L133.167 237.355C132.74 236.928 132.74 236.26 133.167 235.833C133.594 235.406 134.261 235.406 134.688 235.833L136.93 238.075C137.357 238.502 137.357 239.169 136.93 239.597C136.716 239.81 136.449 239.917 136.183 239.917H136.156Z" fill="#FFFFFFFF"></path> <path d="M133.914 242.159C133.647 242.159 133.38 242.052 133.167 241.838C132.74 241.411 132.74 240.744 133.167 240.317L135.409 238.075C135.836 237.648 136.503 237.648 136.93 238.075C137.357 238.502 137.357 239.169 136.93 239.596L134.688 241.838C134.475 242.052 134.208 242.159 133.941 242.159H133.914Z" fill="#FFFFFFFF"></path> <path d="M133.914 282.701C133.327 282.701 132.847 282.22 132.847 281.633V241.091C132.847 240.504 133.327 240.023 133.914 240.023C134.501 240.023 134.982 240.504 134.982 241.091V281.633C134.982 282.22 134.501 282.701 133.914 282.701Z" fill="#FFFFFFFF"></path> <path d="M136.156 284.943C135.889 284.943 135.622 284.836 135.409 284.623L133.167 282.381C132.74 281.954 132.74 281.286 133.167 280.859C133.594 280.432 134.261 280.432 134.688 280.859L136.93 283.101C137.357 283.528 137.357 284.196 136.93 284.623C136.716 284.836 136.449 284.943 136.183 284.943H136.156Z" fill="#FFFFFFFF"></path> <path d="M133.914 287.211C133.647 287.211 133.38 287.105 133.167 286.891C132.74 286.464 132.74 285.797 133.167 285.37L135.409 283.128C135.836 282.701 136.503 282.701 136.93 283.128C137.357 283.555 137.357 284.222 136.93 284.649L134.688 286.891C134.475 287.105 134.208 287.211 133.941 287.211H133.914Z" fill="#FFFFFFFF"></path> <path d="M133.914 310.432C133.327 310.432 132.847 309.951 132.847 309.364V286.144C132.847 285.557 133.327 285.076 133.914 285.076C134.501 285.076 134.982 285.557 134.982 286.144V309.364C134.982 309.951 134.501 310.432 133.914 310.432Z" fill="#FFFFFFFF"></path> <path d="M210.932 315.476C210.932 315.476 210.878 315.476 210.852 315.476L133.833 310.432C133.246 310.405 132.793 309.898 132.846 309.284C132.873 308.697 133.38 308.243 133.994 308.297L211.012 313.341C211.599 313.368 212.052 313.875 211.999 314.489C211.972 315.049 211.492 315.476 210.932 315.476Z" fill="#FFFFFFFF"></path> <path d="M210.932 315.476C210.345 315.476 209.864 314.996 209.864 314.409V308.67C209.864 308.083 210.345 307.603 210.932 307.603C211.519 307.603 211.999 308.083 211.999 308.67V314.409C211.999 314.996 211.519 315.476 210.932 315.476Z" fill="#FFFFFFFF"></path> <path d="M216.322 309.738H210.932C210.345 309.738 209.864 309.257 209.864 308.67C209.864 308.083 210.345 307.603 210.932 307.603H216.322C216.91 307.603 217.39 308.083 217.39 308.67C217.39 309.257 216.91 309.738 216.322 309.738Z" fill="#FFFFFFFF"></path> <path d="M216.322 315.823C215.735 315.823 215.255 315.343 215.255 314.756V308.644C215.255 308.056 215.735 307.576 216.322 307.576C216.909 307.576 217.39 308.056 217.39 308.644V314.756C217.39 315.343 216.909 315.823 216.322 315.823Z" fill="#FFFFFFFF"></path> <path d="M225.343 316.41C225.343 316.41 225.289 316.41 225.263 316.41L216.243 315.823C215.656 315.796 215.202 315.289 215.255 314.675C215.282 314.088 215.816 313.608 216.403 313.688L225.423 314.275C226.01 314.302 226.464 314.809 226.41 315.423C226.384 315.983 225.903 316.41 225.343 316.41Z" fill="#FFFFFFFF"></path> <path d="M225.343 316.41C224.756 316.41 224.275 315.93 224.275 315.343V308.644C224.275 308.056 224.756 307.576 225.343 307.576C225.93 307.576 226.41 308.056 226.41 308.644V315.343C226.41 315.93 225.93 316.41 225.343 316.41Z" fill="#FFFFFFFF"></path> <path d="M230.734 309.738H225.343C224.756 309.738 224.275 309.257 224.275 308.67C224.275 308.083 224.756 307.603 225.343 307.603H230.734C231.321 307.603 231.801 308.083 231.801 308.67C231.801 309.257 231.321 309.738 230.734 309.738Z" fill="#FFFFFFFF"></path> <path d="M230.733 316.811C230.146 316.811 229.666 316.33 229.666 315.743V308.67C229.666 308.083 230.146 307.603 230.733 307.603C231.321 307.603 231.801 308.083 231.801 308.67V315.743C231.801 316.33 231.321 316.811 230.733 316.811Z" fill="#FFFFFFFF"></path> <path d="M262.704 319.24C262.704 319.24 262.651 319.24 262.624 319.24L230.654 316.811C230.067 316.757 229.64 316.25 229.666 315.663C229.72 315.076 230.173 314.676 230.814 314.676L262.785 317.104C263.372 317.158 263.799 317.665 263.772 318.252C263.719 318.812 263.265 319.24 262.704 319.24Z" fill="#FFFFFFFF"></path> <path d="M262.704 319.239C262.117 319.239 261.637 318.759 261.637 318.172V308.67C261.637 308.083 262.117 307.603 262.704 307.603C263.291 307.603 263.772 308.083 263.772 308.67V318.172C263.772 318.759 263.291 319.239 262.704 319.239Z" fill="#FFFFFFFF"></path> <path d="M268.122 309.738H262.704C262.117 309.738 261.637 309.257 261.637 308.67C261.637 308.083 262.117 307.603 262.704 307.603H268.122C268.709 307.603 269.189 308.083 269.189 308.67C269.189 309.257 268.709 309.738 268.122 309.738Z" fill="#FFFFFFFF"></path> <path d="M268.122 319.64C267.535 319.64 267.055 319.159 267.055 318.572V308.67C267.055 308.083 267.535 307.603 268.122 307.603C268.709 307.603 269.19 308.083 269.19 308.67V318.572C269.19 319.159 268.709 319.64 268.122 319.64Z" fill="#FFFFFFFF"></path> <path d="M327.58 302.078C326.993 302.078 326.513 301.597 326.513 301.01V263.617C326.513 263.03 326.993 262.55 327.58 262.55C328.167 262.55 328.648 263.03 328.648 263.617V301.01C328.648 301.597 328.167 302.078 327.58 302.078Z" fill="#FFFFFFFF"></path> <path d="M337.935 302.078H327.58C326.993 302.078 326.513 301.597 326.513 301.01C326.513 300.423 326.993 299.943 327.58 299.943H337.935C338.522 299.943 339.002 300.423 339.002 301.01C339.002 301.597 338.522 302.078 337.935 302.078Z" fill="#FFFFFFFF"></path> <path d="M337.935 302.078C337.348 302.078 336.867 301.597 336.867 301.01V293.804C336.867 293.217 337.348 292.736 337.935 292.736C338.522 292.736 339.002 293.217 339.002 293.804V301.01C339.002 301.597 338.522 302.078 337.935 302.078Z" fill="#FFFFFFFF"></path> <path d="M343.138 294.872H337.907C337.32 294.872 336.84 294.391 336.84 293.804C336.84 293.217 337.32 292.736 337.907 292.736H343.138C343.725 292.736 344.205 293.217 344.205 293.804C344.205 294.391 343.725 294.872 343.138 294.872Z" fill="#FFFFFFFF"></path> <path d="M346.928 302.078C346.555 302.078 346.181 301.864 345.994 301.517L342.205 294.311C341.938 293.777 342.125 293.137 342.658 292.87C343.165 292.603 343.833 292.79 344.099 293.324L347.889 300.53C348.156 301.064 347.969 301.704 347.435 301.971C347.275 302.051 347.115 302.105 346.928 302.105V302.078Z" fill="#FFFFFFFF"></path> <path d="M351.438 302.078H346.928C346.341 302.078 345.86 301.597 345.86 301.01C345.86 300.423 346.341 299.943 346.928 299.943H351.438C352.025 299.943 352.505 300.423 352.505 301.01C352.505 301.597 352.025 302.078 351.438 302.078Z" fill="#FFFFFFFF"></path> <path d="M351.438 302.078C350.851 302.078 350.37 301.597 350.37 301.01V263.617C350.37 263.03 350.851 262.55 351.438 262.55C352.025 262.55 352.505 263.03 352.505 263.617V301.01C352.505 301.597 352.025 302.078 351.438 302.078Z" fill="#FFFFFFFF"></path> <path d="M351.438 264.685H327.58C326.993 264.685 326.513 264.205 326.513 263.617C326.513 263.03 326.993 262.55 327.58 262.55H351.438C352.025 262.55 352.506 263.03 352.506 263.617C352.506 264.205 352.025 264.685 351.438 264.685Z" fill="#FFFFFFFF"></path> <path d="M351.438 222.809H346.928C346.341 222.809 345.86 222.328 345.86 221.741C345.86 221.154 346.341 220.673 346.928 220.673H351.438C352.025 220.673 352.505 221.154 352.505 221.741C352.505 222.328 352.025 222.809 351.438 222.809Z" fill="#FFFFFFFF"></path> <path d="M343.138 230.015C342.978 230.015 342.791 229.988 342.631 229.881C342.097 229.614 341.91 228.974 342.177 228.44L345.967 221.234C346.234 220.7 346.901 220.513 347.408 220.78C347.942 221.047 348.128 221.688 347.862 222.221L344.072 229.428C343.885 229.801 343.512 229.988 343.138 229.988V230.015Z" fill="#FFFFFFFF"></path> <path d="M343.138 230.015H337.907C337.32 230.015 336.84 229.534 336.84 228.947C336.84 228.36 337.32 227.88 337.907 227.88H343.138C343.725 227.88 344.205 228.36 344.205 228.947C344.205 229.534 343.725 230.015 343.138 230.015Z" fill="#FFFFFFFF"></path> <path d="M337.935 230.015C337.348 230.015 336.867 229.534 336.867 228.947V221.741C336.867 221.154 337.348 220.673 337.935 220.673C338.522 220.673 339.002 221.154 339.002 221.741V228.947C339.002 229.534 338.522 230.015 337.935 230.015Z" fill="#FFFFFFFF"></path> <path d="M337.935 222.809H327.58C326.993 222.809 326.513 222.328 326.513 221.741C326.513 221.154 326.993 220.673 327.58 220.673H337.935C338.522 220.673 339.002 221.154 339.002 221.741C339.002 222.328 338.522 222.809 337.935 222.809Z" fill="#FFFFFFFF"></path> <path d="M327.58 260.174C326.993 260.174 326.513 259.694 326.513 259.107V221.714C326.513 221.127 326.993 220.646 327.58 220.646C328.167 220.646 328.648 221.127 328.648 221.714V259.107C328.648 259.694 328.167 260.174 327.58 260.174Z" fill="#FFFFFFFF"></path> <path d="M351.438 260.175H327.58C326.993 260.175 326.513 259.694 326.513 259.107C326.513 258.52 326.993 258.039 327.58 258.039H351.438C352.025 258.039 352.506 258.52 352.506 259.107C352.506 259.694 352.025 260.175 351.438 260.175Z" fill="#FFFFFFFF"></path> <path d="M351.438 260.174C350.851 260.174 350.37 259.694 350.37 259.107V221.714C350.37 221.127 350.851 220.646 351.438 220.646C352.025 220.646 352.505 221.127 352.505 221.714V259.107C352.505 259.694 352.025 260.174 351.438 260.174Z" fill="#FFFFFFFF"></path> <path d="M117.128 215.549C116.568 215.549 116.114 215.122 116.061 214.561C116.008 213.974 116.461 213.467 117.048 213.414L129.324 212.559C129.938 212.506 130.418 212.96 130.472 213.547C130.525 214.134 130.071 214.641 129.484 214.695L117.208 215.549C117.208 215.549 117.155 215.549 117.128 215.549Z" fill="#FFFFFFFF"></path> <path d="M98.7144 259.721C98.581 259.721 98.4476 259.721 98.3141 259.641C97.7804 259.427 97.5135 258.787 97.727 258.253L116.168 214.054C116.381 213.52 117.022 213.254 117.555 213.467C118.089 213.681 118.356 214.321 118.142 214.855L99.7018 259.054C99.5417 259.454 99.1414 259.721 98.7144 259.721Z" fill="#FFFFFFFF"></path> <path d="M129.404 259.721H98.714C98.1269 259.721 97.6465 259.24 97.6465 258.653C97.6465 258.066 98.1269 257.585 98.714 257.585H129.404C129.991 257.585 130.471 258.066 130.471 258.653C130.471 259.24 129.991 259.721 129.404 259.721Z" fill="#FFFFFFFF"></path> <path d="M129.403 259.721C128.816 259.721 128.336 259.24 128.336 258.653V213.6C128.336 213.013 128.816 212.533 129.403 212.533C129.991 212.533 130.471 213.013 130.471 213.6V258.653C130.471 259.24 129.991 259.721 129.403 259.721Z" fill="#FFFFFFFF"></path> <path d="M117.182 309.338C116.755 309.338 116.381 309.097 116.194 308.67L97.727 264.472C97.5135 263.938 97.7537 263.297 98.2874 263.084C98.8212 262.87 99.4616 263.11 99.6751 263.644L118.142 307.843C118.356 308.377 118.116 309.017 117.582 309.231C117.449 309.284 117.315 309.311 117.182 309.311V309.338Z" fill="#FFFFFFFF"></path> <path d="M129.404 310.138C129.404 310.138 129.35 310.138 129.324 310.138L117.101 309.337C116.514 309.311 116.06 308.804 116.114 308.19C116.14 307.603 116.621 307.149 117.261 307.202L129.484 308.003C130.071 308.03 130.525 308.537 130.471 309.151C130.444 309.711 129.964 310.138 129.404 310.138Z" fill="#FFFFFFFF"></path> <path d="M129.403 310.138C128.816 310.138 128.336 309.658 128.336 309.071V264.071C128.336 263.484 128.816 263.004 129.403 263.004C129.991 263.004 130.471 263.484 130.471 264.071V309.071C130.471 309.658 129.991 310.138 129.403 310.138Z" fill="#FFFFFFFF"></path> <path d="M129.404 265.139H98.714C98.1269 265.139 97.6465 264.658 97.6465 264.071C97.6465 263.484 98.1269 263.004 98.714 263.004H129.404C129.991 263.004 130.471 263.484 130.471 264.071C130.471 264.658 129.991 265.139 129.404 265.139Z" fill="#FFFFFFFF"></path> <path d="M90.5216 108.842C89.9345 108.842 89.4541 108.361 89.4541 107.774V105.079C89.4541 104.491 89.9345 104.011 90.5216 104.011C91.1087 104.011 91.589 104.491 91.589 105.079V107.774C91.589 108.361 91.1087 108.842 90.5216 108.842Z" fill="#FFFFFFFF"></path> <path d="M63.8613 115.861C63.4343 115.861 63.0073 115.594 62.8472 115.167C62.6337 114.607 62.9273 113.993 63.4877 113.806L90.1211 104.118C90.6815 103.931 91.2953 104.198 91.4821 104.758C91.6956 105.319 91.402 105.933 90.8416 106.12L64.2082 115.808C64.2082 115.808 63.968 115.861 63.8346 115.861H63.8613Z" fill="#FFFFFFFF"></path> <path d="M63.1944 117.036C62.6073 117.036 62.127 116.555 62.127 115.968C62.127 115.114 62.5806 114.313 63.3279 113.886C63.8349 113.593 64.5021 113.753 64.7956 114.26C65.0892 114.767 64.9291 115.434 64.422 115.728C64.342 115.781 64.2886 115.861 64.2886 115.968C64.2886 116.555 63.8082 117.036 63.2211 117.036H63.1944Z" fill="#FFFFFFFF"></path> <path d="M63.1944 192.168C62.6073 192.168 62.127 191.688 62.127 191.101V115.968C62.127 115.381 62.6073 114.901 63.1944 114.901C63.7815 114.901 64.2619 115.381 64.2619 115.968V191.101C64.2619 191.688 63.7815 192.168 63.1944 192.168Z" fill="#FFFFFFFF"></path> <path d="M105.093 192.168H63.1944C62.6073 192.168 62.127 191.688 62.127 191.101C62.127 190.513 62.6073 190.033 63.1944 190.033H105.093C105.68 190.033 106.16 190.513 106.16 191.101C106.16 191.688 105.68 192.168 105.093 192.168Z" fill="#FFFFFFFF"></path> <path d="M105.092 192.168C104.505 192.168 104.024 191.688 104.024 191.101V129.5C104.024 128.913 104.505 128.432 105.092 128.432C105.679 128.432 106.159 128.913 106.159 129.5V191.101C106.159 191.688 105.679 192.168 105.092 192.168Z" fill="#FFFFFFFF"></path> <path d="M105.093 130.568C104.933 130.568 104.746 130.541 104.612 130.461C99.0881 127.578 94.7115 123.094 91.9627 117.49C91.6959 116.956 91.936 116.315 92.4431 116.048C92.9768 115.781 93.6173 115.995 93.8842 116.529C96.4194 121.733 100.476 125.87 105.6 128.539C106.133 128.806 106.32 129.447 106.053 129.98C105.867 130.354 105.493 130.568 105.093 130.568Z" fill="#FFFFFFFF"></path> <path d="M92.896 118.05C92.5224 118.05 92.1488 117.863 91.962 117.49C90.3074 114.527 89.4268 111.164 89.4268 107.748C89.4268 107.161 89.9071 106.68 90.4942 106.68C91.0813 106.68 91.5617 107.161 91.5617 107.748C91.5617 110.79 92.3356 113.78 93.8301 116.449C94.1236 116.956 93.9368 117.623 93.4298 117.89C93.2697 117.97 93.0828 118.023 92.9227 118.023L92.896 118.05Z" fill="#FFFFFFFF"></path> <path d="M112.752 310.405C112.325 310.405 111.951 310.165 111.764 309.738L92.8432 264.472C92.6297 263.938 92.8699 263.297 93.4036 263.084C93.9374 262.87 94.5778 263.11 94.7913 263.644L113.712 308.91C113.926 309.444 113.686 310.085 113.152 310.298C113.018 310.352 112.885 310.378 112.752 310.378V310.405Z" fill="#FFFFFFFF"></path> <path d="M93.8308 265.139H63.1944C62.6073 265.139 62.127 264.658 62.127 264.071C62.127 263.484 62.6073 263.004 63.1944 263.004H93.8308C94.418 263.004 94.8983 263.484 94.8983 264.071C94.8983 264.658 94.418 265.139 93.8308 265.139Z" fill="#FFFFFFFF"></path> <path d="M63.1944 328.207C62.6073 328.207 62.127 327.727 62.127 327.14V264.071C62.127 263.484 62.6073 263.004 63.1944 263.004C63.7815 263.004 64.2619 263.484 64.2619 264.071V327.14C64.2619 327.727 63.7815 328.207 63.1944 328.207Z" fill="#FFFFFFFF"></path> <path d="M105.093 328.207H63.1944C62.6073 328.207 62.127 327.727 62.127 327.14C62.127 326.553 62.6073 326.072 63.1944 326.072H105.093C105.68 326.072 106.16 326.553 106.16 327.14C106.16 327.727 105.68 328.207 105.093 328.207Z" fill="#FFFFFFFF"></path> <path d="M105.092 328.207C104.505 328.207 104.024 327.727 104.024 327.14V319.48C104.024 318.893 104.505 318.412 105.092 318.412C105.679 318.412 106.159 318.893 106.159 319.48V327.14C106.159 327.727 105.679 328.207 105.092 328.207Z" fill="#FFFFFFFF"></path> <path d="M105.092 320.547C105.092 320.547 105.012 320.547 104.986 320.547C104.399 320.494 103.972 319.96 104.025 319.373C104.532 314.435 107.734 310.192 112.351 308.35C112.885 308.137 113.526 308.403 113.739 308.937C113.952 309.498 113.686 310.112 113.152 310.325C109.282 311.873 106.587 315.423 106.16 319.587C106.107 320.147 105.626 320.547 105.092 320.547Z" fill="#FFFFFFFF"></path> <path d="M304.149 322.362C303.561 322.362 303.081 321.882 303.081 321.295V263.644C303.081 263.057 303.561 262.577 304.149 262.577C304.736 262.577 305.216 263.057 305.216 263.644V321.295C305.216 321.882 304.736 322.362 304.149 322.362Z" fill="#FFFFFFFF"></path> <path d="M312.262 322.976C312.262 322.976 312.208 322.976 312.181 322.976L304.069 322.362C303.482 322.309 303.055 321.802 303.081 321.215C303.135 320.627 303.615 320.227 304.229 320.227L312.342 320.841C312.929 320.894 313.356 321.401 313.329 321.989C313.276 322.549 312.822 322.976 312.262 322.976Z" fill="#FFFFFFFF"></path> <path d="M312.261 322.976C311.834 322.976 311.434 322.709 311.274 322.282C311.007 321.615 310.793 320.948 310.633 320.254C308.392 311.286 313.862 302.185 322.829 299.943C323.39 299.809 323.977 300.156 324.11 300.717C324.244 301.277 323.897 301.864 323.336 301.998C315.517 303.946 310.74 311.9 312.688 319.72C312.848 320.334 313.035 320.921 313.249 321.481C313.462 322.042 313.195 322.656 312.635 322.869C312.501 322.923 312.368 322.949 312.261 322.949V322.976Z" fill="#FFFFFFFF"></path> <path d="M323.069 302.078C322.482 302.078 322.002 301.597 322.002 301.01V263.644C322.002 263.057 322.482 262.577 323.069 262.577C323.657 262.577 324.137 263.057 324.137 263.644V301.01C324.137 301.597 323.657 302.078 323.069 302.078Z" fill="#FFFFFFFF"></path> <path d="M304.149 260.201C303.561 260.201 303.081 259.721 303.081 259.134V201.35C303.081 200.762 303.561 200.282 304.149 200.282C304.736 200.282 305.216 200.762 305.216 201.35V259.134C305.216 259.721 304.736 260.201 304.149 260.201Z" fill="#FFFFFFFF"></path> <path d="M323.069 264.712H304.149C303.561 264.712 303.081 264.231 303.081 263.644C303.081 263.057 303.561 262.577 304.149 262.577H323.069C323.657 262.577 324.137 263.057 324.137 263.644C324.137 264.231 323.657 264.712 323.069 264.712Z" fill="#FFFFFFFF"></path> <path d="M324.404 347.104H313.143C312.556 347.104 312.075 346.624 312.075 346.036C312.075 345.449 312.556 344.969 313.143 344.969H324.404C324.992 344.969 325.472 345.449 325.472 346.036C325.472 346.624 324.992 347.104 324.404 347.104Z" fill="#FFFFFFFF"></path> <path d="M315.41 336.748C314.823 336.748 314.343 336.268 314.343 335.681V333.439C314.343 332.852 314.823 332.371 315.41 332.371C315.997 332.371 316.478 332.852 316.478 333.439V335.681C316.478 336.268 315.997 336.748 315.41 336.748Z" fill="#FFFFFFFF"></path> <path d="M315.411 334.506C315.411 334.506 315.358 334.506 315.331 334.506L223.128 327.54C222.541 327.487 222.114 326.98 222.141 326.393C222.194 325.805 222.675 325.405 223.288 325.405L315.491 332.371C316.078 332.425 316.505 332.932 316.479 333.519C316.425 334.079 315.972 334.506 315.411 334.506Z" fill="#FFFFFFFF"></path> <path d="M223.181 327.54C222.914 327.54 222.621 327.433 222.434 327.22L220.086 324.844C219.659 324.417 219.685 323.75 220.086 323.323C220.486 322.896 221.18 322.923 221.607 323.323L223.955 325.698C224.382 326.126 224.356 326.793 223.955 327.22C223.742 327.433 223.475 327.54 223.208 327.54H223.181Z" fill="#FFFFFFFF"></path> <path d="M218.698 327.273C218.431 327.273 218.138 327.166 217.951 326.953C217.524 326.526 217.551 325.859 217.951 325.432L220.086 323.323C220.486 322.896 221.18 322.923 221.607 323.323C222.034 323.75 222.007 324.417 221.607 324.844L219.472 326.953C219.259 327.166 218.992 327.273 218.725 327.273H218.698Z" fill="#FFFFFFFF"></path> <path d="M218.698 327.273C218.698 327.273 218.645 327.273 218.618 327.273L117.315 320.627C116.728 320.601 116.274 320.094 116.328 319.48C116.354 318.893 116.861 318.439 117.475 318.492L218.778 325.138C219.365 325.165 219.819 325.672 219.765 326.286C219.739 326.846 219.258 327.273 218.698 327.273Z" fill="#FFFFFFFF"></path> <path d="M114.993 322.896C114.433 322.896 113.952 322.496 113.926 321.935C113.926 321.909 113.926 321.615 113.926 321.588C114.059 319.747 115.66 318.385 117.475 318.492C118.062 318.546 118.516 319.053 118.463 319.64C118.409 320.227 117.902 320.681 117.315 320.627C116.675 320.627 116.087 321.081 116.061 321.722C116.061 322.309 115.607 322.869 115.02 322.896H114.967H114.993Z" fill="#FFFFFFFF"></path> <path d="M114.993 393.064C114.406 393.064 113.926 392.584 113.926 391.996V321.908C113.926 321.321 114.406 320.841 114.993 320.841C115.58 320.841 116.061 321.321 116.061 321.908V391.996C116.061 392.584 115.58 393.064 114.993 393.064Z" fill="#FFFFFFFF"></path> <path d="M121.745 393.064H114.993C114.406 393.064 113.926 392.584 113.926 391.997C113.926 391.409 114.406 390.929 114.993 390.929H121.745C122.332 390.929 122.812 391.409 122.812 391.997C122.812 392.584 122.332 393.064 121.745 393.064Z" fill="#FFFFFFFF"></path> <path d="M121.745 405.075C121.158 405.075 120.678 404.594 120.678 404.007V391.997C120.678 391.409 121.158 390.929 121.745 390.929C122.332 390.929 122.813 391.409 122.813 391.997V404.007C122.813 404.594 122.332 405.075 121.745 405.075Z" fill="#FFFFFFFF"></path> <path d="M121.184 406.062C120.757 406.062 120.357 405.795 120.197 405.395C119.984 404.888 120.197 404.301 120.677 404.06C120.677 403.527 121.051 403.046 121.585 402.966C122.145 402.859 122.706 403.286 122.812 403.847C122.946 404.754 122.465 405.635 121.585 405.982C121.451 406.036 121.318 406.062 121.184 406.062Z" fill="#FFFFFFFF"></path> <path d="M115.9 407.477C115.42 407.477 114.993 407.156 114.859 406.676C114.699 406.116 115.046 405.528 115.607 405.368L120.891 403.954C121.451 403.794 122.038 404.141 122.198 404.701C122.358 405.262 122.012 405.849 121.451 406.009L116.167 407.423C116.167 407.423 115.98 407.45 115.9 407.45V407.477Z" fill="#FFFFFFFF"></path> <path d="M115.901 407.477C114.806 407.477 113.926 406.596 113.926 405.502C113.926 404.914 114.406 404.434 114.993 404.434C115.527 404.434 115.981 404.834 116.061 405.342C116.568 405.422 116.968 405.849 116.968 406.409C116.968 406.996 116.488 407.477 115.901 407.477Z" fill="#FFFFFFFF"></path> <path d="M114.993 406.569C114.406 406.569 113.926 406.089 113.926 405.502V401.979C113.926 401.392 114.406 400.911 114.993 400.911C115.58 400.911 116.061 401.392 116.061 401.979V405.502C116.061 406.089 115.58 406.569 114.993 406.569Z" fill="#FFFFFFFF"></path> <path d="M114.993 403.046C114.993 403.046 114.94 403.046 114.913 403.046C114.38 402.993 113.979 402.566 113.926 402.059C113.419 401.952 113.019 401.498 113.045 400.964C113.045 400.404 113.499 399.95 114.059 399.95C115.314 400.03 116.141 400.991 116.061 402.085C116.007 402.646 115.554 403.073 114.993 403.073V403.046Z" fill="#FFFFFFFF"></path> <path d="M99.2208 415.484C99.2208 415.484 99.1141 415.484 99.034 415.484C98.4469 415.377 98.0733 414.843 98.1533 414.256C99.4877 406.382 105.999 400.484 113.979 399.95C114.566 399.95 115.073 400.351 115.126 400.938C115.18 401.525 114.726 402.032 114.139 402.085C107.147 402.566 101.463 407.744 100.288 414.63C100.208 415.164 99.7546 415.51 99.2475 415.51L99.2208 415.484Z" fill="#FFFFFFFF"></path> <path d="M99.2208 423.651C98.6337 423.651 98.1533 423.171 98.1533 422.583V414.416C98.1533 413.829 98.6337 413.349 99.2208 413.349C99.8079 413.349 100.288 413.829 100.288 414.416V422.583C100.288 423.171 99.8079 423.651 99.2208 423.651Z" fill="#FFFFFFFF"></path> <path d="M100.715 425.706C100.715 425.706 100.475 425.706 100.368 425.653C99.0874 425.199 98.2067 423.998 98.1533 422.637C98.1533 422.05 98.607 421.542 99.1941 421.542C99.1941 421.542 99.1941 421.542 99.2208 421.542C99.7812 421.542 100.262 421.996 100.288 422.583C100.288 423.064 100.609 423.491 101.062 423.651C101.623 423.838 101.916 424.452 101.703 425.012C101.543 425.439 101.142 425.733 100.689 425.733L100.715 425.706Z" fill="#FFFFFFFF"></path> <path d="M109.656 428.962C109.656 428.962 109.416 428.962 109.282 428.909L100.342 425.653C99.7818 425.439 99.5149 424.825 99.7017 424.291C99.9152 423.731 100.529 423.437 101.063 423.651L110.003 426.907C110.563 427.121 110.83 427.735 110.643 428.268C110.483 428.695 110.083 428.962 109.629 428.962H109.656Z" fill="#FFFFFFFF"></path> <path d="M110.429 429.096C110.029 429.096 109.655 429.016 109.282 428.882C108.721 428.669 108.454 428.055 108.641 427.521C108.855 426.96 109.468 426.667 110.002 426.88C110.136 426.934 110.269 426.96 110.403 426.96C110.99 426.96 111.47 427.441 111.47 428.028C111.47 428.615 110.99 429.096 110.403 429.096H110.429Z" fill="#FFFFFFFF"></path> <path d="M114.086 429.096H110.43C109.843 429.096 109.362 428.615 109.362 428.028C109.362 427.441 109.843 426.96 110.43 426.96H114.086C114.673 426.96 115.153 427.441 115.153 428.028C115.153 428.615 114.673 429.096 114.086 429.096Z" fill="#FFFFFFFF"></path> <path d="M114.086 429.096C113.499 429.096 113.019 428.615 113.019 428.028C113.019 427.494 113.419 427.041 113.926 426.96C114.006 426.453 114.433 426.053 114.993 426.053C115.58 426.053 116.061 426.533 116.061 427.121C116.061 428.215 115.18 429.096 114.086 429.096Z" fill="#FFFFFFFF"></path> <path d="M114.993 428.188C114.406 428.188 113.926 427.708 113.926 427.121V422.904C113.926 422.316 114.406 421.836 114.993 421.836C115.58 421.836 116.061 422.316 116.061 422.904V427.121C116.061 427.708 115.58 428.188 114.993 428.188Z" fill="#FFFFFFFF"></path> <path d="M114.993 423.971C114.993 423.971 114.859 423.971 114.806 423.971C114.219 423.865 113.845 423.304 113.952 422.744C114.112 421.783 114.993 421.142 115.927 421.115C116.514 421.115 116.994 421.623 116.967 422.21C116.967 422.744 116.54 423.197 116.007 423.251C115.873 423.704 115.446 423.998 114.993 423.998V423.971Z" fill="#FFFFFFFF"></path> <path d="M121.077 424.612C121.077 424.612 120.89 424.612 120.81 424.585L115.633 423.197C115.073 423.037 114.726 422.45 114.886 421.89C115.046 421.329 115.633 421.009 116.194 421.142L121.371 422.53C121.931 422.69 122.278 423.277 122.118 423.838C121.985 424.318 121.558 424.639 121.077 424.639V424.612Z" fill="#FFFFFFFF"></path> <path d="M121.745 425.439C121.238 425.439 120.784 425.065 120.704 424.558C120.197 424.372 119.903 423.811 120.063 423.277C120.223 422.717 120.811 422.37 121.371 422.53C122.172 422.743 122.759 423.464 122.839 424.291C122.892 424.879 122.438 425.386 121.851 425.439C121.825 425.439 121.798 425.439 121.771 425.439H121.745Z" fill="#FFFFFFFF"></path> <path d="M121.745 438.09C121.158 438.09 120.678 437.61 120.678 437.023V424.345C120.678 423.758 121.158 423.277 121.745 423.277C122.332 423.277 122.813 423.758 122.813 424.345V437.023C122.813 437.61 122.332 438.09 121.745 438.09Z" fill="#FFFFFFFF"></path> <path d="M121.745 438.09H108.241C107.654 438.09 107.174 437.61 107.174 437.023C107.174 436.436 107.654 435.955 108.241 435.955H121.745C122.332 435.955 122.812 436.436 122.812 437.023C122.812 437.61 122.332 438.09 121.745 438.09Z" fill="#FFFFFFFF"></path> <path d="M108.241 438.09C108.241 438.09 108.001 438.09 107.868 438.037L53.2934 418.153C52.733 417.939 52.4661 417.325 52.6529 416.792C52.8664 416.231 53.4802 415.964 54.0139 416.151L108.588 436.035C109.149 436.249 109.416 436.862 109.229 437.396C109.069 437.823 108.668 438.09 108.215 438.09H108.241Z" fill="#FFFFFFFF"></path> <path d="M53.6402 418.233C53.5067 418.233 53.3733 418.233 53.2399 418.153C50.4911 417.032 48.6764 414.389 48.623 411.427C48.623 410.84 49.0767 410.359 49.6638 410.333C50.2509 410.333 50.7046 410.786 50.7313 411.373C50.7847 413.482 52.0656 415.377 54.0405 416.178C54.5742 416.391 54.8411 417.032 54.6276 417.565C54.4675 417.966 54.0672 418.233 53.6402 418.233Z" fill="#FFFFFFFF"></path> <path d="M49.6905 412.468C49.1034 412.468 48.623 411.987 48.623 411.4V111.351C48.623 110.764 49.1034 110.283 49.6905 110.283C50.2776 110.283 50.758 110.764 50.758 111.351V411.4C50.758 411.987 50.2776 412.468 49.6905 412.468Z" fill="#FFFFFFFF"></path> <path d="M49.6903 112.418C49.1032 112.418 48.6228 111.911 48.6495 111.324C48.7296 108.255 50.6243 105.586 53.5065 104.491C54.0669 104.278 54.6807 104.572 54.8675 105.132C55.0543 105.693 54.7875 106.306 54.227 106.493C52.1722 107.267 50.8111 109.162 50.7578 111.351C50.7578 111.938 50.2774 112.392 49.6903 112.392V112.418Z" fill="#FFFFFFFF"></path> <path d="M53.8535 106.573C53.4265 106.573 52.9995 106.306 52.8394 105.879C52.6259 105.319 52.9194 104.705 53.4799 104.518L107.868 84.7142C108.428 84.5274 109.042 84.7943 109.229 85.3548C109.442 85.9153 109.148 86.5291 108.588 86.716L54.2004 106.52C54.2004 106.52 53.9602 106.573 53.8268 106.573H53.8535Z" fill="#FFFFFFFF"></path> <path d="M121.745 86.7692H108.241C107.654 86.7692 107.174 86.2888 107.174 85.7016C107.174 85.1145 107.654 84.634 108.241 84.634H121.745C122.332 84.634 122.812 85.1145 122.812 85.7016C122.812 86.2888 122.332 86.7692 121.745 86.7692Z" fill="#FFFFFFFF"></path> <path d="M121.745 99.447C121.158 99.447 120.678 98.9666 120.678 98.3794V85.7016C120.678 85.1145 121.158 84.634 121.745 84.634C122.332 84.634 122.813 85.1145 122.813 85.7016V98.3794C122.813 98.9666 122.332 99.447 121.745 99.447Z" fill="#FFFFFFFF"></path> <path d="M121.078 100.248C120.598 100.248 120.171 99.9276 120.037 99.4472C119.904 98.9134 120.197 98.3796 120.678 98.166C120.784 97.6322 121.265 97.2586 121.798 97.2853C122.386 97.3387 122.813 97.8458 122.786 98.433C122.732 99.2603 122.145 99.981 121.318 100.194C121.238 100.194 121.131 100.221 121.051 100.221L121.078 100.248Z" fill="#FFFFFFFF"></path> <path d="M115.9 101.636C115.42 101.636 114.993 101.315 114.859 100.835C114.699 100.274 115.046 99.6873 115.607 99.5272L120.811 98.1393C121.371 97.9791 121.958 98.3261 122.118 98.8866C122.278 99.4471 121.931 100.034 121.371 100.194L116.167 101.582C116.167 101.582 115.98 101.609 115.9 101.609V101.636Z" fill="#FFFFFFFF"></path> <path d="M115.9 101.636C114.886 101.636 114.059 100.888 113.952 99.9007C113.899 99.3135 114.299 98.7797 114.886 98.7264C115.42 98.673 115.927 99.0199 116.034 99.5271C116.567 99.6071 116.968 100.034 116.968 100.595C116.968 101.182 116.487 101.662 115.9 101.662V101.636Z" fill="#FFFFFFFF"></path> <path d="M114.993 100.835C114.406 100.835 113.926 100.355 113.926 99.7674V95.6037C113.926 95.0166 114.406 94.5361 114.993 94.5361C115.58 94.5361 116.061 95.0166 116.061 95.6037V99.7674C116.061 100.355 115.58 100.835 114.993 100.835Z" fill="#FFFFFFFF"></path> <path d="M114.993 96.6713C114.459 96.6713 114.005 96.271 113.925 95.7639C113.418 95.6838 112.991 95.2567 112.991 94.6963C112.991 94.1091 113.445 93.6287 114.059 93.6287C115.18 93.6287 116.06 94.5094 116.06 95.6037C116.06 96.1909 115.58 96.6713 114.993 96.6713Z" fill="#FFFFFFFF"></path> <path d="M114.059 95.7905H110.402C109.815 95.7905 109.335 95.3101 109.335 94.7229C109.335 94.1357 109.815 93.6553 110.402 93.6553H114.059C114.646 93.6553 115.126 94.1357 115.126 94.7229C115.126 95.3101 114.646 95.7905 114.059 95.7905Z" fill="#FFFFFFFF"></path> <path d="M109.683 95.9239C109.256 95.9239 108.829 95.657 108.668 95.2299C108.455 94.6695 108.749 94.0556 109.309 93.8687C109.656 93.7353 110.029 93.6819 110.403 93.6552C111.097 93.6019 111.471 94.109 111.497 94.6961C111.497 95.2833 111.044 95.7637 110.456 95.7904C110.323 95.7904 110.19 95.8171 110.056 95.8705C109.923 95.9239 109.816 95.9239 109.683 95.9239Z" fill="#FFFFFFFF"></path> <path d="M100.716 99.1535C100.289 99.1535 99.8618 98.8866 99.7017 98.4595C99.4882 97.899 99.7817 97.2852 100.342 97.0983L109.282 93.8421C109.843 93.6553 110.456 93.9222 110.643 94.4827C110.857 95.0432 110.563 95.6571 110.003 95.8439L101.063 99.1001C101.063 99.1001 100.823 99.1535 100.689 99.1535H100.716Z" fill="#FFFFFFFF"></path> <path d="M99.2211 101.556C98.6873 101.556 98.2336 101.155 98.1536 100.621C97.9668 99.0735 98.9008 97.6055 100.369 97.0984C100.929 96.9116 101.543 97.2052 101.73 97.7657C101.916 98.3262 101.623 98.94 101.062 99.1268C100.529 99.3137 100.208 99.8475 100.289 100.381C100.369 100.968 99.9416 101.502 99.3545 101.582C99.3011 101.582 99.2744 101.582 99.2211 101.582V101.556Z" fill="#FFFFFFFF"></path> <path d="M99.2208 109.376C98.6337 109.376 98.1533 108.895 98.1533 108.308V100.488C98.1533 99.9008 98.6337 99.4204 99.2208 99.4204C99.8079 99.4204 100.288 99.9008 100.288 100.488V108.308C100.288 108.895 99.8079 109.376 99.2208 109.376Z" fill="#FFFFFFFF"></path> <path d="M114.086 122.801C114.086 122.801 114.032 122.801 114.006 122.801C106 122.294 99.488 116.395 98.1803 108.495C98.0736 107.908 98.4739 107.374 99.061 107.267C99.6481 107.16 100.182 107.561 100.289 108.148C101.436 115.087 107.147 120.239 114.139 120.666C114.726 120.692 115.18 121.199 115.126 121.813C115.1 122.374 114.619 122.801 114.059 122.801H114.086Z" fill="#FFFFFFFF"></path> <path d="M114.085 122.801H114.032C113.445 122.801 112.965 122.294 112.991 121.707C112.991 121.173 113.418 120.746 113.925 120.666C114.005 120.159 114.486 119.812 114.993 119.758C115.58 119.758 116.034 120.239 116.034 120.826C116.007 121.947 115.126 122.801 114.059 122.801H114.085Z" fill="#FFFFFFFF"></path> <path d="M114.993 121.893C114.406 121.893 113.926 121.413 113.926 120.826V117.223C113.926 116.635 114.406 116.155 114.993 116.155C115.58 116.155 116.061 116.635 116.061 117.223V120.826C116.061 121.413 115.58 121.893 114.993 121.893Z" fill="#FFFFFFFF"></path> <path d="M114.993 118.317C114.406 118.317 113.926 117.836 113.926 117.249C113.926 116.155 114.806 115.274 115.901 115.274C116.488 115.274 116.968 115.755 116.968 116.342C116.968 116.876 116.568 117.329 116.061 117.409C115.981 117.916 115.554 118.317 114.993 118.317Z" fill="#FFFFFFFF"></path> <path d="M121.745 119.785C121.745 119.785 121.638 119.785 121.585 119.785C121.051 119.705 120.651 119.224 120.678 118.691C120.197 118.45 119.984 117.863 120.171 117.356C120.384 116.796 120.998 116.529 121.558 116.742C122.412 117.063 122.946 117.97 122.813 118.878C122.733 119.411 122.279 119.785 121.745 119.785Z" fill="#FFFFFFFF"></path> <path d="M324.404 191.368C323.817 191.368 323.337 190.887 323.337 190.3V178.049C323.337 177.462 323.817 176.982 324.404 176.982C324.991 176.982 325.472 177.462 325.472 178.049V190.3C325.472 190.887 324.991 191.368 324.404 191.368Z" fill="#FFFFFFFF"></path> <path d="M321.709 202.791C321.522 202.791 321.362 202.737 321.202 202.657C320.695 202.364 320.508 201.723 320.775 201.216C322.616 197.88 323.497 194.143 323.337 190.327C323.337 189.739 323.764 189.232 324.351 189.206C325.045 189.206 325.445 189.633 325.472 190.22C325.632 194.41 324.671 198.547 322.643 202.23C322.456 202.577 322.082 202.791 321.709 202.791Z" fill="#FFFFFFFF"></path> <path d="M327.34 212.88C325.926 212.88 324.538 212.479 323.337 211.732C321.576 210.665 320.375 208.956 319.894 206.955C319.414 204.953 319.761 202.898 320.829 201.136C321.149 200.629 321.816 200.469 322.296 200.789C322.803 201.11 322.963 201.75 322.643 202.257C321.869 203.512 321.629 205.006 321.976 206.448C322.323 207.889 323.204 209.117 324.458 209.891C325.339 210.424 326.326 210.718 327.367 210.718C327.954 210.718 328.434 211.198 328.434 211.786C328.434 212.373 327.954 212.853 327.367 212.853L327.34 212.88Z" fill="#FFFFFFFF"></path> <path d="M347.835 212.88H327.34C326.753 212.88 326.272 212.399 326.272 211.812C326.272 211.225 326.753 210.745 327.34 210.745H347.835C348.422 210.745 348.903 211.225 348.903 211.812C348.903 212.399 348.422 212.88 347.835 212.88Z" fill="#FFFFFFFF"></path> <path d="M347.835 212.88C347.248 212.88 346.768 212.399 346.768 211.812C346.768 211.225 347.248 210.745 347.835 210.745C349.73 210.745 351.278 209.196 351.278 207.301C351.278 206.714 351.758 206.234 352.345 206.234C352.932 206.234 353.413 206.714 353.413 207.301C353.413 210.371 350.904 212.88 347.835 212.88Z" fill="#FFFFFFFF"></path> <path d="M352.345 208.396C351.758 208.396 351.277 207.915 351.277 207.328V187.951C351.277 187.364 351.758 186.884 352.345 186.884C352.932 186.884 353.412 187.364 353.412 187.951V207.328C353.412 207.915 352.932 208.396 352.345 208.396Z" fill="#FFFFFFFF"></path> <path d="M352.345 189.019H342.444C341.857 189.019 341.377 188.538 341.377 187.951C341.377 187.364 341.857 186.884 342.444 186.884H352.345C352.932 186.884 353.413 187.364 353.413 187.951C353.413 188.538 352.932 189.019 352.345 189.019Z" fill="#FFFFFFFF"></path> <path d="M342.444 189.019C341.857 189.019 341.377 188.538 341.377 187.951V178.049C341.377 177.462 341.857 176.982 342.444 176.982C343.032 176.982 343.512 177.462 343.512 178.049V187.951C343.512 188.538 343.032 189.019 342.444 189.019Z" fill="#FFFFFFFF"></path> <path d="M342.444 179.117C341.857 179.117 341.377 178.636 341.377 178.049C341.377 176.208 342.871 174.74 344.686 174.74C345.273 174.74 345.754 175.22 345.754 175.807C345.754 176.395 345.273 176.875 344.686 176.875C344.019 176.875 343.512 177.409 343.512 178.049C343.512 178.636 343.032 179.117 342.444 179.117Z" fill="#FFFFFFFF"></path> <path d="M362.246 176.848H344.686C344.099 176.848 343.618 176.368 343.618 175.78C343.618 175.193 344.099 174.713 344.686 174.713H362.246C362.833 174.713 363.313 175.193 363.313 175.78C363.313 176.368 362.833 176.848 362.246 176.848Z" fill="#FFFFFFFF"></path> <path d="M364.942 179.544C364.354 179.544 363.874 179.063 363.874 178.476C363.874 177.569 363.154 176.848 362.246 176.848C361.659 176.848 361.179 176.368 361.179 175.78C361.179 175.193 361.659 174.713 362.246 174.713C364.328 174.713 366.009 176.394 366.009 178.476C366.009 179.063 365.529 179.544 364.942 179.544Z" fill="#FFFFFFFF"></path> <path d="M364.941 345.316C364.354 345.316 363.874 344.835 363.874 344.248V178.503C363.874 177.916 364.354 177.435 364.941 177.435C365.529 177.435 366.009 177.916 366.009 178.503V344.248C366.009 344.835 365.529 345.316 364.941 345.316Z" fill="#FFFFFFFF"></path> <path d="M362.246 348.011C361.659 348.011 361.179 347.531 361.179 346.944C361.179 346.357 361.659 345.876 362.246 345.876C363.154 345.876 363.874 345.155 363.874 344.248C363.874 343.661 364.354 343.18 364.942 343.18C365.529 343.18 366.009 343.661 366.009 344.248C366.009 346.33 364.328 348.011 362.246 348.011Z" fill="#FFFFFFFF"></path> <path d="M362.246 348.011H344.686C344.099 348.011 343.618 347.531 343.618 346.944C343.618 346.357 344.099 345.876 344.686 345.876H362.246C362.833 345.876 363.313 346.357 363.313 346.944C363.313 347.531 362.833 348.011 362.246 348.011Z" fill="#FFFFFFFF"></path> <path d="M344.686 348.011C342.845 348.011 341.377 346.517 341.377 344.702C341.377 344.115 341.857 343.634 342.444 343.634C343.032 343.634 343.512 344.115 343.512 344.702C343.512 345.369 344.046 345.876 344.686 345.876C345.273 345.876 345.754 346.357 345.754 346.944C345.754 347.531 345.273 348.011 344.686 348.011Z" fill="#FFFFFFFF"></path> <path d="M342.444 345.769C341.857 345.769 341.377 345.289 341.377 344.702V334.8C341.377 334.213 341.857 333.732 342.444 333.732C343.032 333.732 343.512 334.213 343.512 334.8V344.702C343.512 345.289 343.032 345.769 342.444 345.769Z" fill="#FFFFFFFF"></path> <path d="M352.345 335.841H342.444C341.857 335.841 341.377 335.36 341.377 334.773C341.377 334.186 341.857 333.706 342.444 333.706H352.345C352.932 333.706 353.413 334.186 353.413 334.773C353.413 335.36 352.932 335.841 352.345 335.841Z" fill="#FFFFFFFF"></path> <path d="M352.345 335.841C351.758 335.841 351.277 335.36 351.277 334.773V315.396C351.277 314.809 351.758 314.329 352.345 314.329C352.932 314.329 353.412 314.809 353.412 315.396V334.773C353.412 335.36 352.932 335.841 352.345 335.841Z" fill="#FFFFFFFF"></path> <path d="M352.345 316.491C351.758 316.491 351.278 316.01 351.278 315.423C351.278 313.528 349.73 311.98 347.835 311.98C347.248 311.98 346.768 311.5 346.768 310.912C346.768 310.325 347.248 309.845 347.835 309.845C350.904 309.845 353.413 312.354 353.413 315.423C353.413 316.01 352.932 316.491 352.345 316.491Z" fill="#FFFFFFFF"></path> <path d="M347.835 311.98H327.34C326.753 311.98 326.272 311.5 326.272 310.912C326.272 310.325 326.753 309.845 327.34 309.845H347.835C348.422 309.845 348.903 310.325 348.903 310.912C348.903 311.5 348.422 311.98 347.835 311.98Z" fill="#FFFFFFFF"></path> <path d="M321.709 322.069C321.362 322.069 321.015 321.882 320.802 321.562C320.055 320.361 319.654 318.973 319.654 317.558C319.654 315.503 320.455 313.581 321.896 312.113C323.337 310.672 325.285 309.845 327.34 309.845C327.927 309.845 328.408 310.325 328.408 310.912C328.408 311.5 327.927 311.98 327.34 311.98C325.846 311.98 324.458 312.567 323.417 313.608C322.376 314.649 321.789 316.064 321.789 317.531C321.789 318.546 322.083 319.56 322.617 320.441C322.937 320.948 322.777 321.588 322.27 321.909C322.083 322.015 321.896 322.069 321.709 322.069Z" fill="#FFFFFFFF"></path> <path d="M63.1944 407.824C62.6073 407.824 62.127 407.343 62.127 406.756V331.624C62.127 331.037 62.6073 330.556 63.1944 330.556C63.7815 330.556 64.2619 331.037 64.2619 331.624V406.756C64.2619 407.343 63.7815 407.824 63.1944 407.824Z" fill="#FFFFFFFF"></path> <path d="M63.9413 409.025C63.7812 409.025 63.6211 408.998 63.461 408.918C62.6604 408.491 62.1533 407.69 62.1533 406.783C62.1533 406.196 62.6337 405.715 63.2208 405.715C63.8079 405.715 64.2883 406.196 64.2883 406.783C64.2883 406.89 64.3416 406.996 64.4484 407.023C64.9821 407.29 65.1689 407.931 64.9021 408.464C64.7152 408.838 64.3416 409.052 63.9413 409.052V409.025Z" fill="#FFFFFFFF"></path> <path d="M90.5215 418.713C90.5215 418.713 90.2813 418.713 90.1478 418.66L63.5678 408.971C63.0074 408.758 62.7405 408.144 62.9273 407.61C63.1141 407.076 63.7546 406.756 64.2884 406.97L90.8684 416.658C91.4288 416.872 91.6957 417.486 91.5089 418.019C91.3488 418.446 90.9484 418.713 90.4948 418.713H90.5215Z" fill="#FFFFFFFF"></path> <path d="M90.5214 418.713C89.961 418.713 89.5073 418.286 89.454 417.726C88.6534 406.916 94.7646 396.694 104.665 392.264C105.199 392.023 105.84 392.264 106.08 392.797C106.32 393.331 106.08 393.972 105.546 394.212C96.4726 398.269 90.8684 407.664 91.6156 417.566C91.669 418.153 91.2153 418.66 90.6282 418.713C90.6015 418.713 90.5748 418.713 90.5481 418.713H90.5214Z" fill="#FFFFFFFF"></path> <path d="M105.092 394.319C104.505 394.319 104.024 393.838 104.024 393.251V331.65C104.024 331.063 104.505 330.583 105.092 330.583C105.679 330.583 106.159 331.063 106.159 331.65V393.251C106.159 393.838 105.679 394.319 105.092 394.319Z" fill="#FFFFFFFF"></path> <path d="M63.1944 259.721C62.6073 259.721 62.127 259.24 62.127 258.653V195.585C62.127 194.998 62.6073 194.517 63.1944 194.517C63.7815 194.517 64.2619 194.998 64.2619 195.585V258.653C64.2619 259.24 63.7815 259.721 63.1944 259.721Z" fill="#FFFFFFFF"></path> <path d="M93.8308 259.721H63.1944C62.6073 259.721 62.127 259.24 62.127 258.653C62.127 258.066 62.6073 257.585 63.1944 257.585H93.8308C94.418 257.585 94.8983 258.066 94.8983 258.653C94.8983 259.24 94.418 259.721 93.8308 259.721Z" fill="#FFFFFFFF"></path> <path d="M93.8306 259.721C93.6972 259.721 93.5638 259.721 93.4303 259.641C92.8966 259.427 92.6297 258.787 92.8432 258.253L111.764 212.906C111.978 212.373 112.618 212.106 113.152 212.319C113.686 212.533 113.952 213.173 113.739 213.707L94.818 259.054C94.6579 259.454 94.2576 259.721 93.8306 259.721Z" fill="#FFFFFFFF"></path> <path d="M112.751 214.374C112.751 214.374 112.538 214.374 112.431 214.321C107.601 212.8 104.265 208.342 104.158 203.271C104.158 202.684 104.612 202.204 105.199 202.177C105.733 202.15 106.266 202.631 106.293 203.218C106.4 207.382 109.122 211.011 113.098 212.266C113.659 212.453 113.979 213.04 113.792 213.6C113.659 214.054 113.232 214.348 112.778 214.348L112.751 214.374Z" fill="#FFFFFFFF"></path> <path d="M105.199 204.339C104.612 204.339 104.132 203.859 104.132 203.271V195.611C104.132 195.024 104.612 194.544 105.199 194.544C105.786 194.544 106.267 195.024 106.267 195.611V203.271C106.267 203.859 105.786 204.339 105.199 204.339Z" fill="#FFFFFFFF"></path> <path d="M323.069 260.201H304.149C303.561 260.201 303.081 259.721 303.081 259.134C303.081 258.546 303.561 258.066 304.149 258.066H323.069C323.657 258.066 324.137 258.546 324.137 259.134C324.137 259.721 323.657 260.201 323.069 260.201Z" fill="#FFFFFFFF"></path> <path d="M323.069 260.201C322.482 260.201 322.002 259.721 322.002 259.134V221.714C322.002 221.127 322.482 220.646 323.069 220.646C323.657 220.646 324.137 221.127 324.137 221.714V259.134C324.137 259.721 323.657 260.201 323.069 260.201Z" fill="#FFFFFFFF"></path> <path d="M323.069 222.808C323.069 222.808 322.909 222.808 322.802 222.782C322.109 222.595 321.415 222.381 320.748 222.115C316.584 220.486 313.302 217.337 311.514 213.227C309.726 209.116 309.619 204.579 311.274 200.416C311.487 199.855 312.101 199.588 312.661 199.802C313.222 200.015 313.489 200.629 313.275 201.19C311.861 204.819 311.941 208.796 313.489 212.373C315.063 215.949 317.919 218.698 321.548 220.113C322.135 220.353 322.722 220.54 323.336 220.673C323.897 220.807 324.244 221.394 324.11 221.954C324.003 222.435 323.55 222.755 323.069 222.755V222.808Z" fill="#FFFFFFFF"></path> <path d="M304.149 202.444C303.588 202.444 303.135 202.017 303.081 201.456C303.055 200.869 303.482 200.362 304.069 200.309L312.181 199.748C312.822 199.668 313.276 200.149 313.329 200.736C313.356 201.323 312.929 201.83 312.342 201.883L304.229 202.444C304.229 202.444 304.175 202.444 304.149 202.444Z" fill="#FFFFFFFF"></path> <path d="M406.599 176.181H365.048C364.834 176.181 364.647 175.994 364.647 175.78C364.647 175.567 364.834 175.38 365.048 175.38H406.599C406.813 175.38 406.999 175.567 406.999 175.78C406.999 175.994 406.813 176.181 406.599 176.181Z" fill="#87374C"></path> <path d="M406.599 347.344H365.048C364.834 347.344 364.647 347.157 364.647 346.944C364.647 346.73 364.834 346.543 365.048 346.543H406.599C406.813 346.543 406.999 346.73 406.999 346.944C406.999 347.157 406.813 347.344 406.599 347.344Z" fill="#87374C"></path> <path d="M400.969 336.081C400.755 336.081 400.568 335.894 400.568 335.681V187.044C400.568 186.83 400.755 186.644 400.969 186.644C401.182 186.644 401.369 186.83 401.369 187.044V335.681C401.369 335.894 401.182 336.081 400.969 336.081Z" fill="#87374C"></path> <path d="M399.101 187.044H402.863L400.969 175.781L399.101 187.044Z" fill="#87374C"></path> <path d="M399.101 335.681H402.863L400.969 346.944L399.101 335.681Z" fill="#87374C"></path> <path d="M387.332 267.835V265.379C387.332 265.086 387.359 264.819 387.439 264.552C387.519 264.285 387.626 264.018 387.786 263.751C387.946 263.484 388.186 263.271 388.48 263.111C388.773 262.95 389.173 262.87 389.627 262.87C390.241 262.87 390.775 263.031 391.228 263.351C391.682 263.671 392.002 264.098 392.189 264.659C392.589 263.911 393.283 263.538 394.271 263.538C395.445 263.538 396.352 263.885 396.993 264.552C397.633 265.219 397.953 266.073 397.953 267.034V269.756C397.953 269.756 397.9 269.97 397.82 270.05C397.74 270.157 397.606 270.183 397.446 270.183C397.179 270.183 396.966 270.103 396.859 269.97C396.752 269.836 396.672 269.703 396.672 269.543V266.954C396.672 266.287 396.459 265.78 396.059 265.379C395.658 264.979 395.098 264.792 394.431 264.792C393.897 264.792 393.497 264.926 393.203 265.219C392.91 265.513 392.776 265.886 392.776 266.393V267.861C392.776 267.861 392.723 268.075 392.643 268.155C392.563 268.235 392.429 268.288 392.269 268.288C392.002 268.288 391.815 268.235 391.709 268.102C391.602 267.968 391.522 267.835 391.522 267.675V266.153C391.522 265.619 391.388 265.139 391.095 264.765C390.801 264.392 390.374 264.178 389.814 264.178C389.013 264.178 388.613 264.685 388.613 265.673V268.075C388.613 268.342 388.453 268.502 388.159 268.502C387.892 268.502 387.679 268.422 387.546 268.288C387.412 268.155 387.332 268.022 387.332 267.888V267.835Z" fill="#87374C"></path> <path d="M387.305 257.612V257.319C387.305 256.598 387.519 255.984 387.946 255.504C388.373 255.023 388.933 254.783 389.627 254.783C390.161 254.783 390.668 254.943 391.122 255.237C391.575 255.531 391.895 255.904 392.136 256.385C392.483 255.717 393.15 255.37 394.11 255.37C395.338 255.37 396.299 255.717 396.966 256.411C397.633 257.105 397.953 257.906 397.953 258.813V259.107C397.953 259.881 397.713 260.522 397.259 261.002C396.806 261.482 396.139 261.749 395.285 261.749C394.431 261.749 393.764 261.589 393.23 261.242C392.696 260.922 392.322 260.495 392.082 259.988C391.762 260.548 391.175 260.842 390.321 260.842C389.414 260.842 388.666 260.522 388.106 259.854C387.545 259.214 387.252 258.466 387.252 257.612H387.305ZM388.48 257.479V257.666C388.48 258.226 388.64 258.68 388.987 259.054C389.334 259.427 389.734 259.614 390.241 259.614C390.641 259.614 390.961 259.507 391.202 259.267C391.442 259.027 391.549 258.707 391.549 258.253V257.799C391.549 257.292 391.388 256.892 391.041 256.545C390.695 256.198 390.321 256.038 389.894 256.038C389.494 256.038 389.147 256.144 388.88 256.385C388.613 256.625 388.48 256.972 388.48 257.452V257.479ZM396.752 258.707C396.752 258.119 396.539 257.639 396.085 257.239C395.632 256.838 395.045 256.625 394.271 256.625C393.79 256.625 393.417 256.758 393.123 257.025C392.829 257.292 392.696 257.666 392.696 258.119V258.36C392.696 258.947 392.91 259.454 393.363 259.854C393.817 260.255 394.431 260.441 395.205 260.441C395.658 260.441 396.059 260.308 396.325 260.041C396.619 259.774 396.752 259.427 396.752 258.947V258.68V258.707Z" fill="#87374C"></path> <path d="M105.412 86.102H8.03214C7.81864 86.102 7.63184 85.9151 7.63184 85.7016C7.63184 85.4881 7.81864 85.3013 8.03214 85.3013H105.439C105.652 85.3013 105.839 85.4881 105.839 85.7016C105.839 85.9151 105.652 86.102 105.439 86.102H105.412Z" fill="#87374C"></path> <path d="M105.412 437.423H8.03214C7.81864 437.423 7.63184 437.236 7.63184 437.023C7.63184 436.809 7.81864 436.622 8.03214 436.622H105.439C105.652 436.622 105.839 436.809 105.839 437.023C105.839 437.236 105.652 437.423 105.439 437.423H105.412Z" fill="#87374C"></path> <path d="M13.663 426.16C13.4495 426.16 13.2627 425.973 13.2627 425.759V96.9648C13.2627 96.7513 13.4495 96.5645 13.663 96.5645C13.8765 96.5645 14.0633 96.7513 14.0633 96.9648V425.786C14.0633 426 13.8765 426.186 13.663 426.186V426.16Z" fill="#87374C"></path> <path d="M11.7949 96.9649H15.5311L13.663 85.7017L11.7949 96.9649Z" fill="#87374C"></path> <path d="M11.7949 425.76H15.5311L13.663 437.023L11.7949 425.76Z" fill="#87374C"></path> <path d="M0.0527344 267.968V262.897C0.0527344 262.683 0.0794211 262.523 0.159481 262.443C0.239542 262.363 0.346289 262.31 0.50641 262.31C0.693217 262.31 0.880024 262.363 1.09352 262.47C1.22695 262.523 1.97418 262.95 3.36189 263.697C4.74961 264.445 6.27075 265.299 7.89865 266.18C9.52654 267.087 10.3538 267.541 10.4072 267.568C10.6474 267.674 10.7808 267.888 10.7808 268.128C10.7808 268.342 10.7274 268.502 10.6207 268.608C10.514 268.742 10.3805 268.795 10.2471 268.795C10.167 268.795 10.0603 268.795 9.95353 268.715C5.28334 266.1 2.40117 264.498 1.3337 263.884V268.101C1.3337 268.395 1.14689 268.555 0.799964 268.555C0.559783 268.555 0.372976 268.475 0.239542 268.342C0.106108 268.208 0.0527344 268.048 0.0527344 267.914V267.968Z" fill="#87374C"></path> <path d="M-0.000337392 257.666V257.372C-0.000337392 256.651 0.213157 256.037 0.640145 255.557C1.06713 255.077 1.62756 254.836 2.32141 254.836C2.85515 254.836 3.3622 254.997 3.81587 255.29C4.26955 255.584 4.58979 255.957 4.82997 256.438C5.1769 255.771 5.84407 255.424 6.80479 255.424C8.03238 255.424 8.9931 255.771 9.66027 256.464C10.3274 257.158 10.6477 257.959 10.6477 258.867V259.16C10.6477 259.934 10.4075 260.575 9.95383 261.055C9.50015 261.536 8.83298 261.803 7.97901 261.803C7.12503 261.803 6.45786 261.642 5.92413 261.295C5.39039 260.975 5.01678 260.548 4.77659 260.041C4.45635 260.601 3.86924 260.895 3.01527 260.895C2.10792 260.895 1.36069 260.575 0.800266 259.908C0.239844 259.267 -0.0537109 258.52 -0.0537109 257.666H-0.000337392ZM1.17388 257.532V257.719C1.17388 258.279 1.334 258.733 1.68093 259.107C2.02786 259.48 2.42816 259.667 2.93521 259.667C3.33551 259.667 3.65575 259.561 3.89593 259.32C4.13611 259.08 4.24286 258.76 4.24286 258.306V257.852C4.24286 257.345 4.08274 256.945 3.73581 256.598C3.38888 256.251 3.01527 256.091 2.58828 256.091C2.18798 256.091 1.84105 256.198 1.57418 256.438C1.30731 256.678 1.17388 257.025 1.17388 257.505V257.532ZM9.44678 258.76C9.44678 258.173 9.23329 257.692 8.77961 257.292C8.32594 256.892 7.73883 256.678 6.96491 256.678C6.48455 256.678 6.11093 256.811 5.81738 257.078C5.52382 257.345 5.39039 257.719 5.39039 258.173V258.413C5.39039 259 5.60388 259.507 6.05756 259.908C6.51124 260.308 7.12503 260.495 7.89895 260.495C8.35262 260.495 8.75292 260.361 9.01979 260.094C9.31335 259.827 9.44678 259.48 9.44678 259V258.733V258.76Z" fill="#87374C"></path> <path d="M364.941 176.074C364.728 176.074 364.541 175.887 364.541 175.674V8.00704C364.541 7.79352 364.728 7.60669 364.941 7.60669C365.155 7.60669 365.342 7.79352 365.342 8.00704V175.674C365.342 175.887 365.155 176.074 364.941 176.074Z" fill="#87374C"></path> <path d="M49.6903 108.922C49.4769 108.922 49.29 108.735 49.29 108.522V8.00704C49.29 7.79352 49.4769 7.60669 49.6903 7.60669C49.9038 7.60669 50.0906 7.79352 50.0906 8.00704V108.522C50.0906 108.735 49.9038 108.922 49.6903 108.922Z" fill="#87374C"></path> <path d="M353.679 14.039H60.9521C60.7386 14.039 60.5518 13.8522 60.5518 13.6386C60.5518 13.4251 60.7386 13.2383 60.9521 13.2383H353.706C353.919 13.2383 354.106 13.4251 354.106 13.6386C354.106 13.8522 353.919 14.039 353.706 14.039H353.679Z" fill="#87374C"></path> <path d="M353.68 11.7437V15.5069L364.942 13.6386L353.68 11.7437Z" fill="#87374C"></path> <path d="M60.9522 11.7437V15.5069L49.6904 13.6386L60.9522 11.7437Z" fill="#87374C"></path> <path d="M200.764 0H205.834C206.048 0 206.208 0.02669 206.288 0.10676C206.368 0.18683 206.421 0.29359 206.421 0.453731C206.421 0.640561 206.368 0.827391 206.261 1.04091C206.208 1.17436 205.781 1.92168 205.034 3.30956C204.286 4.69745 203.433 6.21878 202.552 7.84687C201.644 9.47496 201.191 10.3024 201.164 10.3557C201.057 10.5959 200.844 10.7294 200.604 10.7294C200.39 10.7294 200.23 10.676 200.123 10.5693C199.99 10.4625 199.937 10.329 199.937 10.1956C199.937 10.1155 199.937 10.0088 200.017 9.902C202.632 5.23125 204.233 2.34872 204.847 1.28112H200.63C200.337 1.28112 200.177 1.09429 200.177 0.747321C200.177 0.507111 200.257 0.32028 200.39 0.18683C200.524 0.0533801 200.684 0 200.817 0L200.764 0Z" fill="#87374C"></path> <path d="M210.958 0H211.332C212.106 0 212.746 0.21352 213.226 0.667251C213.707 1.12098 213.947 1.73485 213.947 2.56224C213.947 2.69569 213.947 2.9359 213.894 3.25618L213.226 7.47321C213.066 8.48743 212.693 9.28813 212.106 9.82193C211.519 10.3557 210.798 10.6226 209.971 10.6226H209.597C208.823 10.6226 208.209 10.3824 207.702 9.92869C207.195 9.47496 206.955 8.8344 206.955 8.00701C206.955 7.79349 206.955 7.57997 207.008 7.33976L207.676 3.17611C207.836 2.16189 208.209 1.36119 208.796 0.827391C209.384 0.29359 210.104 0 210.931 0L210.958 0ZM211.919 7.52659L212.639 3.14942C212.639 3.14942 212.666 2.90921 212.666 2.72238C212.666 2.26865 212.533 1.92168 212.292 1.65478C212.052 1.38788 211.679 1.25443 211.172 1.25443H210.878C210.371 1.25443 209.971 1.41457 209.624 1.73485C209.277 2.05513 209.063 2.50886 208.983 3.06935L208.263 7.4999C208.263 7.68673 208.236 7.82018 208.236 7.92694C208.236 8.86109 208.743 9.34151 209.784 9.34151H209.997C210.531 9.34151 210.985 9.18137 211.305 8.8344C211.625 8.48743 211.839 8.06039 211.945 7.4999L211.919 7.52659Z" fill="#87374C"></path> <path d="M364.941 176.074C364.728 176.074 364.541 175.887 364.541 175.674V49.937C364.541 49.7235 364.728 49.5366 364.941 49.5366C365.155 49.5366 365.342 49.7235 365.342 49.937V175.674C365.342 175.887 365.155 176.074 364.941 176.074Z" fill="#87374C"></path> <path d="M121.745 83.2728C121.532 83.2728 121.345 83.086 121.345 82.8725V49.937C121.345 49.7235 121.532 49.5366 121.745 49.5366C121.959 49.5366 122.145 49.7235 122.145 49.937V82.8725C122.145 83.086 121.959 83.2728 121.745 83.2728Z" fill="#87374C"></path> <path d="M353.68 55.9689H133.007C132.793 55.9689 132.606 55.7821 132.606 55.5686C132.606 55.355 132.793 55.1682 133.007 55.1682H353.68C353.893 55.1682 354.08 55.355 354.08 55.5686C354.08 55.7821 353.893 55.9689 353.68 55.9689Z" fill="#87374C"></path> <path d="M353.68 53.7004V57.4637L364.942 55.5687L353.68 53.7004Z" fill="#87374C"></path> <path d="M133.007 53.7004V57.4637L121.745 55.5687L133.007 53.7004Z" fill="#87374C"></path> <path d="M238.153 52.5795H235.404C235.404 52.5795 235.217 52.5261 235.111 52.4194C235.004 52.3126 234.924 52.1791 234.924 51.9923C234.924 51.7521 235.004 51.5653 235.137 51.4585C235.271 51.3518 235.404 51.2984 235.538 51.2984H238.206C238.82 51.2984 239.327 51.0849 239.727 50.6311C240.128 50.1774 240.341 49.6169 240.341 48.923C240.341 48.3892 240.208 47.9888 239.941 47.7219C239.674 47.455 239.3 47.3216 238.82 47.3216H236.418C236.018 47.3216 235.804 47.108 235.804 46.6276C235.804 46.5209 235.804 46.4141 235.804 46.3607L236.392 42.6241C236.472 42.1704 236.739 41.9302 237.166 41.9302H241.889C242.209 41.9302 242.369 42.117 242.369 42.464C242.369 42.7309 242.289 42.9177 242.183 43.0512C242.049 43.1846 241.916 43.238 241.782 43.238H237.593C237.539 43.5049 237.486 43.9586 237.379 44.5725C237.272 45.1864 237.192 45.6935 237.139 46.0671H238.98C239.754 46.0671 240.395 46.2807 240.875 46.7344C241.355 47.1881 241.596 47.8554 241.596 48.7628C241.596 49.9906 241.249 50.9247 240.555 51.592C239.861 52.2592 239.06 52.6062 238.126 52.6062L238.153 52.5795Z" fill="#87374C"></path> <path d="M246.64 50.5243H243.197C242.77 50.5243 242.557 50.3641 242.557 50.0439C242.557 49.8303 242.637 49.5634 242.824 49.2432L246.827 42.3038C246.987 42.0102 247.2 41.8767 247.467 41.8767C247.627 41.8767 247.761 41.9301 247.894 41.9835C248.027 42.0635 248.081 42.197 248.081 42.3571C248.081 42.4639 248.054 42.5707 247.974 42.6774L244.185 49.1898H246.827L247.147 47.1613C247.2 46.7877 247.44 46.6008 247.867 46.6008C248.054 46.6008 248.188 46.6542 248.294 46.7343C248.374 46.8411 248.428 46.9478 248.428 47.0546V47.1346L248.107 49.1631H249.388C249.388 49.1631 249.602 49.2165 249.709 49.2965C249.815 49.3766 249.842 49.5101 249.842 49.6702C249.842 49.8837 249.789 50.0706 249.655 50.2307C249.522 50.3908 249.388 50.4709 249.175 50.4709H247.867L247.627 52.099C247.627 52.2324 247.52 52.3659 247.414 52.446C247.28 52.5527 247.12 52.6061 246.907 52.6061C246.533 52.6061 246.346 52.446 246.346 52.1524V52.099L246.613 50.4709L246.64 50.5243Z" fill="#87374C"></path> <path d="M406.599 86.102H124.573C124.36 86.102 124.173 85.9151 124.173 85.7016C124.173 85.4881 124.36 85.3013 124.573 85.3013H406.626C406.839 85.3013 407.026 85.4881 407.026 85.7016C407.026 85.9151 406.839 86.102 406.626 86.102H406.599Z" fill="#87374C"></path> <path d="M406.599 176.181H365.048C364.834 176.181 364.647 175.994 364.647 175.78C364.647 175.567 364.834 175.38 365.048 175.38H406.599C406.813 175.38 406.999 175.567 406.999 175.78C406.999 175.994 406.813 176.181 406.599 176.181Z" fill="#87374C"></path> <path d="M400.969 164.918C400.755 164.918 400.568 164.731 400.568 164.517V96.9648C400.568 96.7513 400.755 96.5645 400.969 96.5645C401.182 96.5645 401.369 96.7513 401.369 96.9648V164.517C401.369 164.731 401.182 164.918 400.969 164.918Z" fill="#87374C"></path> <path d="M399.101 96.9649H402.863L400.969 85.7017L399.101 96.9649Z" fill="#87374C"></path> <path d="M399.101 164.517H402.863L400.969 175.781L399.101 164.517Z" fill="#87374C"></path> <path d="M388.666 133.984V136.787C388.666 137.16 388.452 137.32 388.052 137.32H387.999C387.785 137.32 387.652 137.24 387.545 137.107C387.438 136.973 387.385 136.813 387.385 136.627V134.011C387.385 133.21 387.598 132.596 387.999 132.143C388.426 131.689 388.959 131.475 389.68 131.475H389.92C390.667 131.555 391.254 131.796 391.708 132.249C392.162 132.703 392.589 133.317 392.936 134.118L393.896 136.146C394.323 137.054 394.964 137.587 395.791 137.748L396.645 137.908V133.237C396.645 132.89 396.859 132.703 397.259 132.703H397.312C397.739 132.703 397.953 132.943 397.953 133.344V138.628C397.953 138.842 397.899 138.975 397.793 139.109C397.686 139.215 397.552 139.269 397.419 139.269H397.339L395.791 139.055C395.071 138.949 394.483 138.708 394.003 138.361C393.549 138.014 393.122 137.427 392.722 136.627L391.575 134.278C391.121 133.344 390.56 132.837 389.893 132.81H389.787C388.986 132.81 388.586 133.21 388.586 134.011L388.666 133.984Z" fill="#87374C"></path> <path d="M387.358 126.965V126.591C387.358 125.817 387.572 125.176 388.026 124.696C388.479 124.216 389.093 123.975 389.92 123.975C390.054 123.975 390.294 123.975 390.614 124.029L394.831 124.696C395.845 124.856 396.645 125.23 397.179 125.817C397.713 126.404 397.98 127.125 397.98 127.952V128.326C397.98 129.1 397.74 129.714 397.286 130.221C396.832 130.701 396.192 130.968 395.364 130.968C395.151 130.968 394.937 130.968 394.697 130.915L390.534 130.247C389.52 130.087 388.719 129.714 388.186 129.127C387.652 128.539 387.358 127.819 387.358 126.991V126.965ZM394.884 126.004L390.507 125.283C390.507 125.283 390.267 125.256 390.08 125.256C389.627 125.256 389.28 125.39 389.013 125.63C388.746 125.897 388.613 126.244 388.613 126.751V127.045C388.613 127.552 388.773 127.952 389.093 128.299C389.413 128.646 389.867 128.86 390.427 128.94L394.857 129.66C395.044 129.66 395.178 129.687 395.284 129.687C396.218 129.687 396.699 129.18 396.699 128.139V127.925C396.699 127.392 396.539 126.938 396.192 126.618C395.872 126.271 395.418 126.084 394.857 125.977L394.884 126.004Z" fill="#87374C"></path> <path d="M406.599 437.423H124.573C124.36 437.423 124.173 437.236 124.173 437.023C124.173 436.809 124.36 436.622 124.573 436.622H406.626C406.839 436.622 407.026 436.809 407.026 437.023C407.026 437.236 406.839 437.423 406.626 437.423H406.599Z" fill="#87374C"></path> <path d="M406.599 347.344H365.048C364.834 347.344 364.647 347.157 364.647 346.944C364.647 346.73 364.834 346.543 365.048 346.543H406.599C406.813 346.543 406.999 346.73 406.999 346.944C406.999 347.157 406.813 347.344 406.599 347.344Z" fill="#87374C"></path> <path d="M400.969 426.16C400.755 426.16 400.568 425.973 400.568 425.759V358.207C400.568 357.993 400.755 357.807 400.969 357.807C401.182 357.807 401.369 357.993 401.369 358.207V425.759C401.369 425.973 401.182 426.16 400.969 426.16Z" fill="#87374C"></path> <path d="M399.101 425.76H402.863L400.969 437.023L399.101 425.76Z" fill="#87374C"></path> <path d="M399.101 358.207H402.863L400.969 346.944L399.101 358.207Z" fill="#87374C"></path> <path d="M388.666 395.226V398.029C388.666 398.376 388.452 398.562 388.052 398.562H387.999C387.785 398.562 387.652 398.482 387.545 398.349C387.438 398.215 387.385 398.055 387.385 397.868V395.253C387.385 394.452 387.598 393.838 387.999 393.385C388.399 392.931 388.959 392.717 389.68 392.717H389.92C390.667 392.797 391.254 393.038 391.708 393.491C392.162 393.945 392.589 394.559 392.936 395.36L393.896 397.388C394.323 398.296 394.964 398.829 395.791 398.989L396.645 399.15V394.479C396.645 394.132 396.859 393.945 397.259 393.945H397.312C397.739 393.945 397.953 394.185 397.953 394.586V399.87C397.953 400.057 397.899 400.217 397.793 400.351C397.686 400.457 397.552 400.511 397.419 400.511H397.339L395.791 400.297C395.071 400.19 394.483 399.95 394.003 399.603C393.523 399.256 393.122 398.669 392.722 397.868L391.575 395.52C391.121 394.586 390.56 394.078 389.893 394.052H389.787C388.986 394.052 388.586 394.452 388.586 395.253L388.666 395.226Z" fill="#87374C"></path> <path d="M387.358 388.207V387.833C387.358 387.059 387.572 386.418 388.026 385.938C388.479 385.458 389.093 385.217 389.92 385.217C390.054 385.217 390.294 385.217 390.614 385.271L394.831 385.938C395.845 386.098 396.645 386.472 397.179 387.059C397.713 387.646 397.98 388.367 397.98 389.194V389.568C397.98 390.342 397.74 390.956 397.286 391.463C396.832 391.97 396.192 392.21 395.364 392.21C395.151 392.21 394.937 392.21 394.697 392.157L390.534 391.489C389.52 391.329 388.719 390.956 388.186 390.368C387.652 389.781 387.358 389.061 387.358 388.233V388.207ZM394.884 387.246L390.507 386.525C390.507 386.525 390.267 386.498 390.08 386.498C389.627 386.498 389.28 386.632 389.013 386.872C388.746 387.139 388.613 387.486 388.613 387.993V388.287C388.613 388.794 388.773 389.194 389.093 389.541C389.413 389.888 389.867 390.102 390.427 390.182L394.857 390.902C395.044 390.902 395.178 390.929 395.284 390.929C396.218 390.929 396.699 390.422 396.699 389.381V389.167C396.699 388.634 396.539 388.18 396.192 387.86C395.872 387.513 395.418 387.326 394.857 387.219L394.884 387.246Z" fill="#87374C"></path> <path d="M295.957 232.15V289.8C295.957 298.742 288.698 306.001 279.758 306.001H154.544C145.604 306.001 138.345 298.742 138.345 289.8V262.096H147.338V289.8C147.338 293.777 150.567 297.007 154.544 297.007H279.758C283.734 297.007 286.963 293.777 286.963 289.8V232.15C286.963 228.173 283.734 224.944 279.758 224.944H154.544C150.567 224.944 147.338 228.173 147.338 232.15V259.854H138.345V232.15C138.345 223.182 145.604 215.922 154.544 215.922H279.758C288.698 215.922 295.957 223.182 295.957 232.15Z" fill="#87374C"></path> </g> <defs> <clipPath id="clip0_3298_4087"> <rect width="407" height="438.09" fill="white"></rect> </clipPath> </defs> </svg> 